<mxfile host="app.diagrams.net" agent="Mozilla/5.0 (Windows NT 10.0; Win64; x64) AppleWebKit/537.36 (KHTML, like Gecko) Chrome/128.0.0.0 Safari/537.36 Edg/128.0.0.0" version="24.7.7">
  <diagram name="PÃ¡gina-1" id="XLWcUnQ2OtwNRo95f-Rs">
    <mxGraphModel dx="1068" dy="473" grid="1" gridSize="10" guides="1" tooltips="1" connect="1" arrows="1" fold="1" page="1" pageScale="1" pageWidth="827" pageHeight="1169" math="0" shadow="0">
      <root>
        <mxCell id="0" />
        <mxCell id="1" parent="0" />
        <mxCell id="TTbMjoaPgEURXuAcXUNv-1" value="paciente" style="swimlane;fontStyle=0;childLayout=stackLayout;horizontal=1;startSize=26;fillColor=none;horizontalStack=0;resizeParent=1;resizeParentMax=0;resizeLast=0;collapsible=1;marginBottom=0;whiteSpace=wrap;html=1;" vertex="1" parent="1">
          <mxGeometry x="60" y="200" width="260" height="162" as="geometry" />
        </mxCell>
        <mxCell id="TTbMjoaPgEURXuAcXUNv-11" value="" style="shape=table;startSize=0;container=1;collapsible=1;childLayout=tableLayout;fixedRows=1;rowLines=0;fontStyle=0;align=center;resizeLast=1;strokeColor=none;fillColor=none;collapsible=0;" vertex="1" parent="TTbMjoaPgEURXuAcXUNv-1">
          <mxGeometry y="26" width="260" height="30" as="geometry" />
        </mxCell>
        <mxCell id="TTbMjoaPgEURXuAcXUNv-12" value="" style="shape=tableRow;horizontal=0;startSize=0;swimlaneHead=0;swimlaneBody=0;fillColor=none;collapsible=0;dropTarget=0;points=[[0,0.5],[1,0.5]];portConstraint=eastwest;top=0;left=0;right=0;bottom=1;" vertex="1" parent="TTbMjoaPgEURXuAcXUNv-11">
          <mxGeometry width="260" height="30" as="geometry" />
        </mxCell>
        <mxCell id="TTbMjoaPgEURXuAcXUNv-13" value="PK" style="shape=partialRectangle;connectable=0;fillColor=none;top=0;left=0;bottom=0;right=0;fontStyle=1;overflow=hidden;whiteSpace=wrap;html=1;" vertex="1" parent="TTbMjoaPgEURXuAcXUNv-12">
          <mxGeometry width="30" height="30" as="geometry">
            <mxRectangle width="30" height="30" as="alternateBounds" />
          </mxGeometry>
        </mxCell>
        <mxCell id="TTbMjoaPgEURXuAcXUNv-14" value="cpf:varchar(14)" style="shape=partialRectangle;connectable=0;fillColor=none;top=0;left=0;bottom=0;right=0;align=left;spacingLeft=6;fontStyle=5;overflow=hidden;whiteSpace=wrap;html=1;" vertex="1" parent="TTbMjoaPgEURXuAcXUNv-12">
          <mxGeometry x="30" width="230" height="30" as="geometry">
            <mxRectangle width="230" height="30" as="alternateBounds" />
          </mxGeometry>
        </mxCell>
        <mxCell id="TTbMjoaPgEURXuAcXUNv-3" value="+ nome_paciente:&amp;nbsp; varchar(40)" style="text;strokeColor=none;fillColor=none;align=left;verticalAlign=top;spacingLeft=4;spacingRight=4;overflow=hidden;rotatable=0;points=[[0,0.5],[1,0.5]];portConstraint=eastwest;whiteSpace=wrap;html=1;" vertex="1" parent="TTbMjoaPgEURXuAcXUNv-1">
          <mxGeometry y="56" width="260" height="24" as="geometry" />
        </mxCell>
        <mxCell id="TTbMjoaPgEURXuAcXUNv-4" value="+ telefone: varchar(14)&lt;div&gt;&lt;br&gt;&lt;/div&gt;" style="text;strokeColor=none;fillColor=none;align=left;verticalAlign=top;spacingLeft=4;spacingRight=4;overflow=hidden;rotatable=0;points=[[0,0.5],[1,0.5]];portConstraint=eastwest;whiteSpace=wrap;html=1;" vertex="1" parent="TTbMjoaPgEURXuAcXUNv-1">
          <mxGeometry y="80" width="260" height="22" as="geometry" />
        </mxCell>
        <mxCell id="TTbMjoaPgEURXuAcXUNv-5" value="+ numero_plano: int&lt;div&gt;&lt;br&gt;&lt;/div&gt;" style="text;strokeColor=none;fillColor=none;align=left;verticalAlign=top;spacingLeft=4;spacingRight=4;overflow=hidden;rotatable=0;points=[[0,0.5],[1,0.5]];portConstraint=eastwest;whiteSpace=wrap;html=1;" vertex="1" parent="TTbMjoaPgEURXuAcXUNv-1">
          <mxGeometry y="102" width="260" height="20" as="geometry" />
        </mxCell>
        <mxCell id="TTbMjoaPgEURXuAcXUNv-6" value="+ nome_plano:varchar(20)" style="text;strokeColor=none;fillColor=none;align=left;verticalAlign=top;spacingLeft=4;spacingRight=4;overflow=hidden;rotatable=0;points=[[0,0.5],[1,0.5]];portConstraint=eastwest;whiteSpace=wrap;html=1;" vertex="1" parent="TTbMjoaPgEURXuAcXUNv-1">
          <mxGeometry y="122" width="260" height="20" as="geometry" />
        </mxCell>
        <mxCell id="TTbMjoaPgEURXuAcXUNv-7" value="+ tipo_plano:varchar(10)" style="text;strokeColor=none;fillColor=none;align=left;verticalAlign=top;spacingLeft=4;spacingRight=4;overflow=hidden;rotatable=0;points=[[0,0.5],[1,0.5]];portConstraint=eastwest;whiteSpace=wrap;html=1;" vertex="1" parent="TTbMjoaPgEURXuAcXUNv-1">
          <mxGeometry y="142" width="260" height="20" as="geometry" />
        </mxCell>
        <mxCell id="TTbMjoaPgEURXuAcXUNv-28" value="medico" style="swimlane;fontStyle=0;childLayout=stackLayout;horizontal=1;startSize=26;fillColor=none;horizontalStack=0;resizeParent=1;resizeParentMax=0;resizeLast=0;collapsible=1;marginBottom=0;whiteSpace=wrap;html=1;" vertex="1" parent="1">
          <mxGeometry x="220" y="500" width="210" height="108" as="geometry" />
        </mxCell>
        <mxCell id="TTbMjoaPgEURXuAcXUNv-32" value="" style="shape=table;startSize=0;container=1;collapsible=1;childLayout=tableLayout;fixedRows=1;rowLines=0;fontStyle=0;align=center;resizeLast=1;strokeColor=none;fillColor=none;collapsible=0;" vertex="1" parent="TTbMjoaPgEURXuAcXUNv-28">
          <mxGeometry y="26" width="210" height="30" as="geometry" />
        </mxCell>
        <mxCell id="TTbMjoaPgEURXuAcXUNv-33" value="" style="shape=tableRow;horizontal=0;startSize=0;swimlaneHead=0;swimlaneBody=0;fillColor=none;collapsible=0;dropTarget=0;points=[[0,0.5],[1,0.5]];portConstraint=eastwest;top=0;left=0;right=0;bottom=1;" vertex="1" parent="TTbMjoaPgEURXuAcXUNv-32">
          <mxGeometry width="210" height="30" as="geometry" />
        </mxCell>
        <mxCell id="TTbMjoaPgEURXuAcXUNv-34" value="PK" style="shape=partialRectangle;connectable=0;fillColor=none;top=0;left=0;bottom=0;right=0;fontStyle=1;overflow=hidden;whiteSpace=wrap;html=1;" vertex="1" parent="TTbMjoaPgEURXuAcXUNv-33">
          <mxGeometry width="30" height="30" as="geometry">
            <mxRectangle width="30" height="30" as="alternateBounds" />
          </mxGeometry>
        </mxCell>
        <mxCell id="TTbMjoaPgEURXuAcXUNv-35" value="crm: int" style="shape=partialRectangle;connectable=0;fillColor=none;top=0;left=0;bottom=0;right=0;align=left;spacingLeft=6;fontStyle=5;overflow=hidden;whiteSpace=wrap;html=1;" vertex="1" parent="TTbMjoaPgEURXuAcXUNv-33">
          <mxGeometry x="30" width="180" height="30" as="geometry">
            <mxRectangle width="180" height="30" as="alternateBounds" />
          </mxGeometry>
        </mxCell>
        <mxCell id="TTbMjoaPgEURXuAcXUNv-30" value="+ nome_medico: varchar(30)" style="text;strokeColor=none;fillColor=none;align=left;verticalAlign=top;spacingLeft=4;spacingRight=4;overflow=hidden;rotatable=0;points=[[0,0.5],[1,0.5]];portConstraint=eastwest;whiteSpace=wrap;html=1;" vertex="1" parent="TTbMjoaPgEURXuAcXUNv-28">
          <mxGeometry y="56" width="210" height="26" as="geometry" />
        </mxCell>
        <mxCell id="TTbMjoaPgEURXuAcXUNv-31" value="+ especialidade: varchar(20)" style="text;strokeColor=none;fillColor=none;align=left;verticalAlign=top;spacingLeft=4;spacingRight=4;overflow=hidden;rotatable=0;points=[[0,0.5],[1,0.5]];portConstraint=eastwest;whiteSpace=wrap;html=1;" vertex="1" parent="TTbMjoaPgEURXuAcXUNv-28">
          <mxGeometry y="82" width="210" height="26" as="geometry" />
        </mxCell>
        <mxCell id="TTbMjoaPgEURXuAcXUNv-228" style="edgeStyle=orthogonalEdgeStyle;rounded=0;orthogonalLoop=1;jettySize=auto;html=1;entryX=1;entryY=0.5;entryDx=0;entryDy=0;" edge="1" parent="1" source="TTbMjoaPgEURXuAcXUNv-36" target="TTbMjoaPgEURXuAcXUNv-214">
          <mxGeometry relative="1" as="geometry" />
        </mxCell>
        <mxCell id="TTbMjoaPgEURXuAcXUNv-249" value="(0,N)" style="edgeLabel;html=1;align=center;verticalAlign=middle;resizable=0;points=[];" vertex="1" connectable="0" parent="TTbMjoaPgEURXuAcXUNv-228">
          <mxGeometry x="0.4825" relative="1" as="geometry">
            <mxPoint as="offset" />
          </mxGeometry>
        </mxCell>
        <mxCell id="TTbMjoaPgEURXuAcXUNv-250" value="(0,1)" style="edgeLabel;html=1;align=center;verticalAlign=middle;resizable=0;points=[];" vertex="1" connectable="0" parent="TTbMjoaPgEURXuAcXUNv-228">
          <mxGeometry x="-0.4965" y="2" relative="1" as="geometry">
            <mxPoint as="offset" />
          </mxGeometry>
        </mxCell>
        <mxCell id="TTbMjoaPgEURXuAcXUNv-36" value="exame" style="swimlane;fontStyle=0;childLayout=stackLayout;horizontal=1;startSize=26;fillColor=none;horizontalStack=0;resizeParent=1;resizeParentMax=0;resizeLast=0;collapsible=1;marginBottom=0;whiteSpace=wrap;html=1;" vertex="1" parent="1">
          <mxGeometry x="1410" y="343" width="180" height="104" as="geometry" />
        </mxCell>
        <mxCell id="TTbMjoaPgEURXuAcXUNv-40" value="" style="shape=table;startSize=0;container=1;collapsible=1;childLayout=tableLayout;fixedRows=1;rowLines=0;fontStyle=0;align=center;resizeLast=1;strokeColor=none;fillColor=none;collapsible=0;" vertex="1" parent="TTbMjoaPgEURXuAcXUNv-36">
          <mxGeometry y="26" width="180" height="30" as="geometry" />
        </mxCell>
        <mxCell id="TTbMjoaPgEURXuAcXUNv-41" value="" style="shape=tableRow;horizontal=0;startSize=0;swimlaneHead=0;swimlaneBody=0;fillColor=none;collapsible=0;dropTarget=0;points=[[0,0.5],[1,0.5]];portConstraint=eastwest;top=0;left=0;right=0;bottom=1;" vertex="1" parent="TTbMjoaPgEURXuAcXUNv-40">
          <mxGeometry width="180" height="30" as="geometry" />
        </mxCell>
        <mxCell id="TTbMjoaPgEURXuAcXUNv-42" value="PK" style="shape=partialRectangle;connectable=0;fillColor=none;top=0;left=0;bottom=0;right=0;fontStyle=1;overflow=hidden;whiteSpace=wrap;html=1;" vertex="1" parent="TTbMjoaPgEURXuAcXUNv-41">
          <mxGeometry width="30" height="30" as="geometry">
            <mxRectangle width="30" height="30" as="alternateBounds" />
          </mxGeometry>
        </mxCell>
        <mxCell id="TTbMjoaPgEURXuAcXUNv-43" value="codigo: int" style="shape=partialRectangle;connectable=0;fillColor=none;top=0;left=0;bottom=0;right=0;align=left;spacingLeft=6;fontStyle=5;overflow=hidden;whiteSpace=wrap;html=1;" vertex="1" parent="TTbMjoaPgEURXuAcXUNv-41">
          <mxGeometry x="30" width="150" height="30" as="geometry">
            <mxRectangle width="150" height="30" as="alternateBounds" />
          </mxGeometry>
        </mxCell>
        <mxCell id="TTbMjoaPgEURXuAcXUNv-38" value="+ especificacao: varchar(20)" style="text;strokeColor=none;fillColor=none;align=left;verticalAlign=top;spacingLeft=4;spacingRight=4;overflow=hidden;rotatable=0;points=[[0,0.5],[1,0.5]];portConstraint=eastwest;whiteSpace=wrap;html=1;" vertex="1" parent="TTbMjoaPgEURXuAcXUNv-36">
          <mxGeometry y="56" width="180" height="22" as="geometry" />
        </mxCell>
        <mxCell id="TTbMjoaPgEURXuAcXUNv-39" value="+ preco: money" style="text;strokeColor=none;fillColor=none;align=left;verticalAlign=top;spacingLeft=4;spacingRight=4;overflow=hidden;rotatable=0;points=[[0,0.5],[1,0.5]];portConstraint=eastwest;whiteSpace=wrap;html=1;" vertex="1" parent="TTbMjoaPgEURXuAcXUNv-36">
          <mxGeometry y="78" width="180" height="26" as="geometry" />
        </mxCell>
        <mxCell id="TTbMjoaPgEURXuAcXUNv-44" value="consulta" style="swimlane;fontStyle=0;childLayout=stackLayout;horizontal=1;startSize=26;fillColor=none;horizontalStack=0;resizeParent=1;resizeParentMax=0;resizeLast=0;collapsible=1;marginBottom=0;whiteSpace=wrap;html=1;" vertex="1" parent="1">
          <mxGeometry x="591" y="230" width="236" height="168" as="geometry" />
        </mxCell>
        <mxCell id="TTbMjoaPgEURXuAcXUNv-48" value="" style="shape=table;startSize=0;container=1;collapsible=1;childLayout=tableLayout;fixedRows=1;rowLines=0;fontStyle=0;align=center;resizeLast=1;strokeColor=none;fillColor=none;collapsible=0;" vertex="1" parent="TTbMjoaPgEURXuAcXUNv-44">
          <mxGeometry y="26" width="236" height="30" as="geometry" />
        </mxCell>
        <mxCell id="TTbMjoaPgEURXuAcXUNv-49" value="" style="shape=tableRow;horizontal=0;startSize=0;swimlaneHead=0;swimlaneBody=0;fillColor=none;collapsible=0;dropTarget=0;points=[[0,0.5],[1,0.5]];portConstraint=eastwest;top=0;left=0;right=0;bottom=1;" vertex="1" parent="TTbMjoaPgEURXuAcXUNv-48">
          <mxGeometry width="236" height="30" as="geometry" />
        </mxCell>
        <mxCell id="TTbMjoaPgEURXuAcXUNv-50" value="PK" style="shape=partialRectangle;connectable=0;fillColor=none;top=0;left=0;bottom=0;right=0;fontStyle=1;overflow=hidden;whiteSpace=wrap;html=1;" vertex="1" parent="TTbMjoaPgEURXuAcXUNv-49">
          <mxGeometry width="30" height="30" as="geometry">
            <mxRectangle width="30" height="30" as="alternateBounds" />
          </mxGeometry>
        </mxCell>
        <mxCell id="TTbMjoaPgEURXuAcXUNv-51" value="numero_consulta: UniqueID" style="shape=partialRectangle;connectable=0;fillColor=none;top=0;left=0;bottom=0;right=0;align=left;spacingLeft=6;fontStyle=5;overflow=hidden;whiteSpace=wrap;html=1;" vertex="1" parent="TTbMjoaPgEURXuAcXUNv-49">
          <mxGeometry x="30" width="206" height="30" as="geometry">
            <mxRectangle width="206" height="30" as="alternateBounds" />
          </mxGeometry>
        </mxCell>
        <mxCell id="TTbMjoaPgEURXuAcXUNv-46" value="+ data_consulta: date" style="text;strokeColor=none;fillColor=none;align=left;verticalAlign=top;spacingLeft=4;spacingRight=4;overflow=hidden;rotatable=0;points=[[0,0.5],[1,0.5]];portConstraint=eastwest;whiteSpace=wrap;html=1;" vertex="1" parent="TTbMjoaPgEURXuAcXUNv-44">
          <mxGeometry y="56" width="236" height="26" as="geometry" />
        </mxCell>
        <mxCell id="TTbMjoaPgEURXuAcXUNv-47" value="+ horario_consulta: time" style="text;strokeColor=none;fillColor=none;align=left;verticalAlign=top;spacingLeft=4;spacingRight=4;overflow=hidden;rotatable=0;points=[[0,0.5],[1,0.5]];portConstraint=eastwest;whiteSpace=wrap;html=1;" vertex="1" parent="TTbMjoaPgEURXuAcXUNv-44">
          <mxGeometry y="82" width="236" height="26" as="geometry" />
        </mxCell>
        <mxCell id="TTbMjoaPgEURXuAcXUNv-53" value="" style="shape=table;startSize=0;container=1;collapsible=1;childLayout=tableLayout;fixedRows=1;rowLines=0;fontStyle=0;align=center;resizeLast=1;strokeColor=none;fillColor=none;collapsible=0;" vertex="1" parent="TTbMjoaPgEURXuAcXUNv-44">
          <mxGeometry y="108" width="236" height="60" as="geometry" />
        </mxCell>
        <mxCell id="TTbMjoaPgEURXuAcXUNv-54" value="" style="shape=tableRow;horizontal=0;startSize=0;swimlaneHead=0;swimlaneBody=0;fillColor=none;collapsible=0;dropTarget=0;points=[[0,0.5],[1,0.5]];portConstraint=eastwest;top=0;left=0;right=0;bottom=0;" vertex="1" parent="TTbMjoaPgEURXuAcXUNv-53">
          <mxGeometry width="236" height="30" as="geometry" />
        </mxCell>
        <mxCell id="TTbMjoaPgEURXuAcXUNv-55" value="FK" style="shape=partialRectangle;connectable=0;fillColor=none;top=0;left=0;bottom=0;right=0;fontStyle=0;overflow=hidden;whiteSpace=wrap;html=1;" vertex="1" parent="TTbMjoaPgEURXuAcXUNv-54">
          <mxGeometry width="30" height="30" as="geometry">
            <mxRectangle width="30" height="30" as="alternateBounds" />
          </mxGeometry>
        </mxCell>
        <mxCell id="TTbMjoaPgEURXuAcXUNv-56" value="fk_paciente_cpf: varchar(14)" style="shape=partialRectangle;connectable=0;fillColor=none;top=0;left=0;bottom=0;right=0;align=left;spacingLeft=6;fontStyle=0;overflow=hidden;whiteSpace=wrap;html=1;" vertex="1" parent="TTbMjoaPgEURXuAcXUNv-54">
          <mxGeometry x="30" width="206" height="30" as="geometry">
            <mxRectangle width="206" height="30" as="alternateBounds" />
          </mxGeometry>
        </mxCell>
        <mxCell id="TTbMjoaPgEURXuAcXUNv-57" value="" style="shape=tableRow;horizontal=0;startSize=0;swimlaneHead=0;swimlaneBody=0;fillColor=none;collapsible=0;dropTarget=0;points=[[0,0.5],[1,0.5]];portConstraint=eastwest;top=0;left=0;right=0;bottom=0;" vertex="1" parent="TTbMjoaPgEURXuAcXUNv-53">
          <mxGeometry y="30" width="236" height="30" as="geometry" />
        </mxCell>
        <mxCell id="TTbMjoaPgEURXuAcXUNv-58" value="FK" style="shape=partialRectangle;connectable=0;fillColor=none;top=0;left=0;bottom=0;right=0;fontStyle=0;overflow=hidden;whiteSpace=wrap;html=1;" vertex="1" parent="TTbMjoaPgEURXuAcXUNv-57">
          <mxGeometry width="30" height="30" as="geometry">
            <mxRectangle width="30" height="30" as="alternateBounds" />
          </mxGeometry>
        </mxCell>
        <mxCell id="TTbMjoaPgEURXuAcXUNv-59" value="fk_medico_crm: int" style="shape=partialRectangle;connectable=0;fillColor=none;top=0;left=0;bottom=0;right=0;align=left;spacingLeft=6;fontStyle=0;overflow=hidden;whiteSpace=wrap;html=1;" vertex="1" parent="TTbMjoaPgEURXuAcXUNv-57">
          <mxGeometry x="30" width="206" height="30" as="geometry">
            <mxRectangle width="206" height="30" as="alternateBounds" />
          </mxGeometry>
        </mxCell>
        <mxCell id="TTbMjoaPgEURXuAcXUNv-61" value="pedido_exame" style="swimlane;fontStyle=0;childLayout=stackLayout;horizontal=1;startSize=26;fillColor=none;horizontalStack=0;resizeParent=1;resizeParentMax=0;resizeLast=0;collapsible=1;marginBottom=0;whiteSpace=wrap;html=1;" vertex="1" parent="1">
          <mxGeometry x="927" y="220" width="340" height="190" as="geometry" />
        </mxCell>
        <mxCell id="TTbMjoaPgEURXuAcXUNv-192" value="" style="shape=table;startSize=0;container=1;collapsible=1;childLayout=tableLayout;fixedRows=1;rowLines=0;fontStyle=0;align=center;resizeLast=1;strokeColor=none;fillColor=none;collapsible=0;" vertex="1" parent="TTbMjoaPgEURXuAcXUNv-61">
          <mxGeometry y="26" width="340" height="30" as="geometry" />
        </mxCell>
        <mxCell id="TTbMjoaPgEURXuAcXUNv-193" value="" style="shape=tableRow;horizontal=0;startSize=0;swimlaneHead=0;swimlaneBody=0;fillColor=none;collapsible=0;dropTarget=0;points=[[0,0.5],[1,0.5]];portConstraint=eastwest;top=0;left=0;right=0;bottom=1;" vertex="1" parent="TTbMjoaPgEURXuAcXUNv-192">
          <mxGeometry width="340" height="30" as="geometry" />
        </mxCell>
        <mxCell id="TTbMjoaPgEURXuAcXUNv-194" value="PK" style="shape=partialRectangle;connectable=0;fillColor=none;top=0;left=0;bottom=0;right=0;fontStyle=1;overflow=hidden;whiteSpace=wrap;html=1;" vertex="1" parent="TTbMjoaPgEURXuAcXUNv-193">
          <mxGeometry width="30" height="30" as="geometry">
            <mxRectangle width="30" height="30" as="alternateBounds" />
          </mxGeometry>
        </mxCell>
        <mxCell id="TTbMjoaPgEURXuAcXUNv-195" value="numero_pedido: UniqueID" style="shape=partialRectangle;connectable=0;fillColor=none;top=0;left=0;bottom=0;right=0;align=left;spacingLeft=6;fontStyle=5;overflow=hidden;whiteSpace=wrap;html=1;" vertex="1" parent="TTbMjoaPgEURXuAcXUNv-193">
          <mxGeometry x="30" width="310" height="30" as="geometry">
            <mxRectangle width="310" height="30" as="alternateBounds" />
          </mxGeometry>
        </mxCell>
        <mxCell id="TTbMjoaPgEURXuAcXUNv-63" value="+ resultado: varchar(40)" style="text;strokeColor=none;fillColor=none;align=left;verticalAlign=top;spacingLeft=4;spacingRight=4;overflow=hidden;rotatable=0;points=[[0,0.5],[1,0.5]];portConstraint=eastwest;whiteSpace=wrap;html=1;" vertex="1" parent="TTbMjoaPgEURXuAcXUNv-61">
          <mxGeometry y="56" width="340" height="26" as="geometry" />
        </mxCell>
        <mxCell id="TTbMjoaPgEURXuAcXUNv-64" value="+ data_exame: date" style="text;strokeColor=none;fillColor=none;align=left;verticalAlign=top;spacingLeft=4;spacingRight=4;overflow=hidden;rotatable=0;points=[[0,0.5],[1,0.5]];portConstraint=eastwest;whiteSpace=wrap;html=1;" vertex="1" parent="TTbMjoaPgEURXuAcXUNv-61">
          <mxGeometry y="82" width="340" height="28" as="geometry" />
        </mxCell>
        <mxCell id="TTbMjoaPgEURXuAcXUNv-196" value="+ valor_pagar: money" style="text;strokeColor=none;fillColor=none;align=left;verticalAlign=top;spacingLeft=4;spacingRight=4;overflow=hidden;rotatable=0;points=[[0,0.5],[1,0.5]];portConstraint=eastwest;whiteSpace=wrap;html=1;" vertex="1" parent="TTbMjoaPgEURXuAcXUNv-61">
          <mxGeometry y="110" width="340" height="26" as="geometry" />
        </mxCell>
        <mxCell id="TTbMjoaPgEURXuAcXUNv-199" value="" style="shape=table;startSize=0;container=1;collapsible=1;childLayout=tableLayout;fixedRows=1;rowLines=0;fontStyle=0;align=center;resizeLast=1;strokeColor=none;fillColor=none;collapsible=0;" vertex="1" parent="TTbMjoaPgEURXuAcXUNv-61">
          <mxGeometry y="136" width="340" height="54" as="geometry" />
        </mxCell>
        <mxCell id="TTbMjoaPgEURXuAcXUNv-200" value="" style="shape=tableRow;horizontal=0;startSize=0;swimlaneHead=0;swimlaneBody=0;fillColor=none;collapsible=0;dropTarget=0;points=[[0,0.5],[1,0.5]];portConstraint=eastwest;top=0;left=0;right=0;bottom=0;" vertex="1" parent="TTbMjoaPgEURXuAcXUNv-199">
          <mxGeometry width="340" height="24" as="geometry" />
        </mxCell>
        <mxCell id="TTbMjoaPgEURXuAcXUNv-201" value="FK" style="shape=partialRectangle;connectable=0;fillColor=none;top=0;left=0;bottom=0;right=0;fontStyle=0;overflow=hidden;whiteSpace=wrap;html=1;" vertex="1" parent="TTbMjoaPgEURXuAcXUNv-200">
          <mxGeometry width="30" height="24" as="geometry">
            <mxRectangle width="30" height="24" as="alternateBounds" />
          </mxGeometry>
        </mxCell>
        <mxCell id="TTbMjoaPgEURXuAcXUNv-202" value="fk_consulta_numero_consulta: int" style="shape=partialRectangle;connectable=0;fillColor=none;top=0;left=0;bottom=0;right=0;align=left;spacingLeft=6;fontStyle=0;overflow=hidden;whiteSpace=wrap;html=1;" vertex="1" parent="TTbMjoaPgEURXuAcXUNv-200">
          <mxGeometry x="30" width="310" height="24" as="geometry">
            <mxRectangle width="310" height="24" as="alternateBounds" />
          </mxGeometry>
        </mxCell>
        <mxCell id="TTbMjoaPgEURXuAcXUNv-214" value="" style="shape=tableRow;horizontal=0;startSize=0;swimlaneHead=0;swimlaneBody=0;fillColor=none;collapsible=0;dropTarget=0;points=[[0,0.5],[1,0.5]];portConstraint=eastwest;top=0;left=0;right=0;bottom=0;" vertex="1" parent="TTbMjoaPgEURXuAcXUNv-199">
          <mxGeometry y="24" width="340" height="30" as="geometry" />
        </mxCell>
        <mxCell id="TTbMjoaPgEURXuAcXUNv-215" value="FK" style="shape=partialRectangle;connectable=0;fillColor=none;top=0;left=0;bottom=0;right=0;fontStyle=0;overflow=hidden;whiteSpace=wrap;html=1;" vertex="1" parent="TTbMjoaPgEURXuAcXUNv-214">
          <mxGeometry width="30" height="30" as="geometry">
            <mxRectangle width="30" height="30" as="alternateBounds" />
          </mxGeometry>
        </mxCell>
        <mxCell id="TTbMjoaPgEURXuAcXUNv-216" value="fk_exame_codigo: int" style="shape=partialRectangle;connectable=0;fillColor=none;top=0;left=0;bottom=0;right=0;align=left;spacingLeft=6;fontStyle=0;overflow=hidden;whiteSpace=wrap;html=1;" vertex="1" parent="TTbMjoaPgEURXuAcXUNv-214">
          <mxGeometry x="30" width="310" height="30" as="geometry">
            <mxRectangle width="310" height="30" as="alternateBounds" />
          </mxGeometry>
        </mxCell>
        <mxCell id="TTbMjoaPgEURXuAcXUNv-227" style="edgeStyle=orthogonalEdgeStyle;rounded=0;orthogonalLoop=1;jettySize=auto;html=1;" edge="1" parent="1" source="TTbMjoaPgEURXuAcXUNv-54" target="TTbMjoaPgEURXuAcXUNv-200">
          <mxGeometry relative="1" as="geometry">
            <mxPoint x="927" y="395" as="targetPoint" />
          </mxGeometry>
        </mxCell>
        <mxCell id="TTbMjoaPgEURXuAcXUNv-247" value="(1,1)" style="edgeLabel;html=1;align=center;verticalAlign=middle;resizable=0;points=[];" vertex="1" connectable="0" parent="TTbMjoaPgEURXuAcXUNv-227">
          <mxGeometry x="-0.5652" y="1" relative="1" as="geometry">
            <mxPoint as="offset" />
          </mxGeometry>
        </mxCell>
        <mxCell id="TTbMjoaPgEURXuAcXUNv-248" value="(0,N)" style="edgeLabel;html=1;align=center;verticalAlign=middle;resizable=0;points=[];" vertex="1" connectable="0" parent="TTbMjoaPgEURXuAcXUNv-227">
          <mxGeometry x="0.5826" y="-2" relative="1" as="geometry">
            <mxPoint as="offset" />
          </mxGeometry>
        </mxCell>
        <mxCell id="TTbMjoaPgEURXuAcXUNv-236" style="edgeStyle=orthogonalEdgeStyle;rounded=0;orthogonalLoop=1;jettySize=auto;html=1;entryX=0;entryY=0.5;entryDx=0;entryDy=0;exitX=1;exitY=0.5;exitDx=0;exitDy=0;" edge="1" parent="1" source="TTbMjoaPgEURXuAcXUNv-12" target="TTbMjoaPgEURXuAcXUNv-54">
          <mxGeometry relative="1" as="geometry" />
        </mxCell>
        <mxCell id="TTbMjoaPgEURXuAcXUNv-239" value="1" style="edgeLabel;html=1;align=center;verticalAlign=middle;resizable=0;points=[];" vertex="1" connectable="0" parent="TTbMjoaPgEURXuAcXUNv-236">
          <mxGeometry x="-0.6449" y="1" relative="1" as="geometry">
            <mxPoint as="offset" />
          </mxGeometry>
        </mxCell>
        <mxCell id="TTbMjoaPgEURXuAcXUNv-240" value="1" style="edgeLabel;html=1;align=center;verticalAlign=middle;resizable=0;points=[];" vertex="1" connectable="0" parent="TTbMjoaPgEURXuAcXUNv-236">
          <mxGeometry x="0.6606" relative="1" as="geometry">
            <mxPoint as="offset" />
          </mxGeometry>
        </mxCell>
        <mxCell id="TTbMjoaPgEURXuAcXUNv-245" value="(1,1)" style="edgeLabel;html=1;align=center;verticalAlign=middle;resizable=0;points=[];" vertex="1" connectable="0" parent="TTbMjoaPgEURXuAcXUNv-236">
          <mxGeometry x="-0.624" relative="1" as="geometry">
            <mxPoint as="offset" />
          </mxGeometry>
        </mxCell>
        <mxCell id="TTbMjoaPgEURXuAcXUNv-246" value="(0,N)" style="edgeLabel;html=1;align=center;verticalAlign=middle;resizable=0;points=[];" vertex="1" connectable="0" parent="TTbMjoaPgEURXuAcXUNv-236">
          <mxGeometry x="0.6971" y="-2" relative="1" as="geometry">
            <mxPoint as="offset" />
          </mxGeometry>
        </mxCell>
        <mxCell id="TTbMjoaPgEURXuAcXUNv-237" style="edgeStyle=orthogonalEdgeStyle;rounded=0;orthogonalLoop=1;jettySize=auto;html=1;entryX=0;entryY=0.5;entryDx=0;entryDy=0;exitX=1.01;exitY=0.033;exitDx=0;exitDy=0;exitPerimeter=0;" edge="1" parent="1" source="TTbMjoaPgEURXuAcXUNv-33" target="TTbMjoaPgEURXuAcXUNv-57">
          <mxGeometry relative="1" as="geometry">
            <mxPoint x="480" y="510" as="sourcePoint" />
          </mxGeometry>
        </mxCell>
        <mxCell id="TTbMjoaPgEURXuAcXUNv-241" value="1" style="edgeLabel;html=1;align=center;verticalAlign=middle;resizable=0;points=[];" vertex="1" connectable="0" parent="TTbMjoaPgEURXuAcXUNv-237">
          <mxGeometry x="-0.518" y="-3" relative="1" as="geometry">
            <mxPoint as="offset" />
          </mxGeometry>
        </mxCell>
        <mxCell id="TTbMjoaPgEURXuAcXUNv-242" value="0" style="edgeLabel;html=1;align=center;verticalAlign=middle;resizable=0;points=[];" vertex="1" connectable="0" parent="TTbMjoaPgEURXuAcXUNv-237">
          <mxGeometry x="0.4718" relative="1" as="geometry">
            <mxPoint as="offset" />
          </mxGeometry>
        </mxCell>
        <mxCell id="TTbMjoaPgEURXuAcXUNv-243" value="(0,1)" style="edgeLabel;html=1;align=center;verticalAlign=middle;resizable=0;points=[];" vertex="1" connectable="0" parent="TTbMjoaPgEURXuAcXUNv-237">
          <mxGeometry x="-0.5246" y="-2" relative="1" as="geometry">
            <mxPoint as="offset" />
          </mxGeometry>
        </mxCell>
        <mxCell id="TTbMjoaPgEURXuAcXUNv-244" value="(0,N)" style="edgeLabel;html=1;align=center;verticalAlign=middle;resizable=0;points=[];" vertex="1" connectable="0" parent="TTbMjoaPgEURXuAcXUNv-237">
          <mxGeometry x="0.4916" y="-2" relative="1" as="geometry">
            <mxPoint as="offset" />
          </mxGeometry>
        </mxCell>
      </root>
    </mxGraphModel>
  </diagram>
</mxfile>
